<?xml version="1.0" standalone="no"?><!DOCTYPE svg PUBLIC "-//W3C//DTD SVG 1.1//EN" "http://www.w3.org/Graphics/SVG/1.1/DTD/svg11.dtd"><svg t="1732244545320" class="icon" viewBox="0 0 1024 1024" version="1.1" xmlns="http://www.w3.org/2000/svg" p-id="9274" xmlns:xlink="http://www.w3.org/1999/xlink" width="200" height="200"><path d="M831 97.6H384.7c-52.6 0-95.7 43.1-95.7 95.7V257h-95.7c-52.6 0-95.7 43.1-95.7 95.7v478.1c0 52.6 43.1 95.7 95.7 95.7h637.5c52.6 0 95.7-43.1 95.7-95.7V193.3c0.1-52.6-42.9-95.7-95.5-95.7z m31.9 733.2c0 17.5-14.3 31.9-31.9 31.9H193.5c-17.5 0-31.9-14.3-31.9-31.9V352.6c0-17.5 14.3-31.9 31.9-31.9h95.7V735c0 17.5 14.3 31.9 31.9 31.9 17.5 0 31.9-14.3 31.9-31.9V193.3c0-17.5 14.3-31.9 31.9-31.9H831c17.5 0 31.9 14.3 31.9 31.9v637.5z" fill="#2c2c2c" p-id="9275"></path><path d="M735.3 671.4H480.4c-17.5 0-31.9-14.3-31.9-31.9s14.3-31.9 31.9-31.9h255.1c17.5 0 31.9 14.3 31.9 31.9-0.1 17.4-14.5 31.9-32.1 31.9zM735.3 416.3H480.4c-17.5 0-31.9-14.3-31.9-31.9 0-17.5 14.3-31.9 31.9-31.9h255.1c17.5 0 31.9 14.3 31.9 31.9-0.1 17.6-14.5 31.9-32.1 31.9z" fill="#2c2c2c" p-id="9276"></path></svg>