<?xml version="1.0" standalone="no"?><!DOCTYPE svg PUBLIC "-//W3C//DTD SVG 1.1//EN" "http://www.w3.org/Graphics/SVG/1.1/DTD/svg11.dtd"><svg t="1732287370221" class="icon" viewBox="0 0 1024 1024" version="1.1" xmlns="http://www.w3.org/2000/svg" p-id="25043" xmlns:xlink="http://www.w3.org/1999/xlink" width="200" height="200"><path d="M41.3184 51.2C18.688 51.2 0.3328 69.4272 0.3328 91.904c0 22.528 18.3552 40.7552 40.96 40.7552h902.4768c22.6304 0 40.96-18.2272 40.96-40.7296S966.4 51.2 943.7952 51.2H41.3184zM40.96 317.312c-22.6304 0-40.9856 18.2272-40.9856 40.7296s18.3552 40.7296 40.96 40.7296H194.048c22.6304 0 40.96-18.2272 40.96-40.704 0-22.528-18.3296-40.7552-40.96-40.7552H40.96zM0 626.7648c0-22.5024 18.3552-40.704 40.96-40.704H194.048c22.6304 0 40.96 18.2016 40.96 40.704 0 22.5024-18.3296 40.7296-40.96 40.7296H40.96c-22.6304 0-40.9856-18.2272-40.9856-40.704z m40.96 222.7712c-22.6048 0-40.96 18.2528-40.96 40.7296 0 22.528 18.3552 40.7296 40.96 40.7296h399.36c22.6304 0 40.9856-18.2272 40.9856-40.704 0-22.528-18.3552-40.7552-40.96-40.7552H40.96z m794.1888-144.7424a290.9696 290.9696 0 0 0-38.016-396.8256c-115.584-101.8368-290.7136-97.4592-400.9984 9.984a290.944 290.944 0 0 0-17.9968 398.2336c100.1728 116.8384 274.2016 136.7808 398.4896 45.6448l177.2288 173.2352a41.1648 41.1648 0 0 0 39.9104 10.7008c14.2592-3.84 25.344-15.0528 28.9792-29.2864a40.5504 40.5504 0 0 0-11.4432-39.4752l-176.128-172.2112z m-233.2672 32.8448a212.4032 212.4032 0 0 1-187.1872-104.192 209.664 209.664 0 0 1 0-213.1712 212.4032 212.4032 0 0 1 187.1872-104.192c115.5072 2.2784 207.9488 95.9744 207.9488 210.7904 0 114.7904-92.4416 208.4864-207.9488 210.7648z" fill="" p-id="25044"></path></svg>
