<?xml version="1.0" standalone="no"?><!DOCTYPE svg PUBLIC "-//W3C//DTD SVG 1.1//EN" "http://www.w3.org/Graphics/SVG/1.1/DTD/svg11.dtd"><svg t="1732287429612" class="icon" viewBox="0 0 1024 1024" version="1.1" xmlns="http://www.w3.org/2000/svg" p-id="27186" xmlns:xlink="http://www.w3.org/1999/xlink" width="200" height="200"><path d="M877.653333 0H146.346667C65.493333 0 0 65.493333 0 146.346667v731.306666C0 958.506667 65.493333 1024 146.346667 1024h731.306666c80.853333 0 146.346667-65.493333 146.346667-146.346667V146.346667C1024 65.493333 958.506667 0 877.653333 0z m73.386667 877.866667c0 19.413333-7.68 37.973333-21.333333 51.84-13.653333 13.653333-32.426667 21.333333-51.84 21.333333H146.56c-19.413333 0-38.186667-7.68-51.84-21.333333a72.298667 72.298667 0 0 1-21.546667-51.626667V146.346667c0-40.533333 32.853333-73.386667 73.386667-73.386667h731.306667a73.152 73.152 0 0 1 73.173333 73.386667v731.52z m0 0" fill="" p-id="27187"></path><path d="M832.213333 328.96H539.733333a36.48 36.48 0 1 0 0 72.96h292.693334c13.013333 0 25.173333-7.04 31.573333-18.346667 6.613333-11.306667 6.613333-25.173333 0-36.48-6.613333-11.093333-18.773333-18.133333-31.786667-18.133333z m0 292.906667H539.733333a36.48 36.48 0 1 0 0 72.96h292.693334c13.013333 0 25.173333-7.04 31.573333-18.346667 6.613333-11.306667 6.613333-25.173333 0-36.48s-18.773333-18.133333-31.786667-18.133333z m-512-91.52a128 128 0 0 0-113.493333 63.146666 127.68 127.68 0 0 0 0 129.92 128.256 128.256 0 0 0 113.493333 63.146667c68.906667-2.346667 123.52-59.093333 123.52-128s-54.613333-125.653333-123.52-128.213333z m38.826667 166.826666c-13.866667 14.08-34.133333 19.626667-53.333333 14.72-18.986667-5.12-33.92-20.053333-39.04-39.04-5.12-18.986667 0.64-39.466667 14.72-53.333333 21.546667-21.12 55.893333-20.906667 77.226666 0.426667s21.546667 55.893333 0.426667 77.226666z m45.013333-430.293333l-120.533333 120.533333-47.36-47.146666c-14.293333-14.293333-37.333333-14.293333-51.626667 0-14.293333 14.293333-14.293333 37.333333 0 51.626666l73.173334 73.173334c6.826667 6.826667 16.213333 10.666667 25.813333 10.666666 9.6 0 18.986667-3.84 25.813333-10.666666l146.346667-146.346667c14.293333-14.293333 14.293333-37.333333 0-51.626667a36.266667 36.266667 0 0 0-51.626667-0.213333z m0 0" fill="" p-id="27188"></path></svg>
