<?xml version="1.0" standalone="no"?><!DOCTYPE svg PUBLIC "-//W3C//DTD SVG 1.1//EN" "http://www.w3.org/Graphics/SVG/1.1/DTD/svg11.dtd"><svg t="1732287518855" class="icon" viewBox="0 0 1024 1024" version="1.1" xmlns="http://www.w3.org/2000/svg" p-id="28910" xmlns:xlink="http://www.w3.org/1999/xlink" width="200" height="200"><path d="M706.009134 394.33002c-1.853208-5.281283-3.799536-10.44591-6.856152-15.700587l-4.353145-7.643074c9.91379-14.032598 15.470343-29.108968 15.470343-44.948725l0-89.64367c0-12.205996-3.287883-24.524556-10.095939-36.70497l-2.038426-3.89061c2.778276-6.462179 4.630461-13.153578 4.630461-20.125363 0-72.506361-156.639526-111.644753-303.923988-111.644753-147.284461 0-303.97106 39.137369-303.97106 111.644753 0 6.971785 1.899256 13.709233 4.678556 20.125363l-2.130524 3.89061c-6.623861 12.227486-10.004865 24.498974-10.004865 36.70497l0 89.64367c0 15.839757 5.558599 30.916127 15.470343 44.901653l-4.447289 7.735172c-7.317663 12.667507-11.023054 25.66145-11.023054 38.373982l0 89.667206c0 15.331173 5.234211 30.129204 14.729469 43.883463l-3.706415 6.299473c-7.317663 12.759605-11.023054 25.705452-11.023054 38.417985l0 89.644693c0 79.781044 136.818085 142.191466 311.427892 142.191466 35.663244 0 69.750597-2.801812 101.431134-7.596002-2.037403-2.710738-3.612271-5.743818-5.465478-8.592702 46.037523 51.618635 112.733551 84.480067 187.160657 84.480067 138.626267 0 251.356748-112.825648 251.356748-251.354702C933.325349 513.547239 833.283866 406.557506 706.009134 394.33002M398.842289 97.373725c167.662581 0 270.669606 45.576011 270.669606 78.298274 0 32.630165-103.007025 78.274738-270.669606 78.274738-167.663604 0-270.577508-45.644573-270.577508-78.274738C128.26478 142.950759 231.178685 97.373725 398.842289 97.373725M120.761899 251.514337c50.021254 42.262546 165.810397 64.171532 278.080389 64.171532 112.26897 0 228.058113-21.908986 278.079366-64.310701l0 74.661444c0 51.503001-114.166179 108.841917-278.079366 108.841917-163.866115 0-278.080389-57.338916-278.080389-108.841917L120.761899 251.514337zM120.761899 422.350191c51.086515 46.849004 156.315138 76.700893 278.080389 76.700893 28.993335 0 56.319703-2.248204 82.858126-5.559623-20.425192 27.235294-35.894512 58.105373-43.954071 92.237751-2.223644 9.265014-3.982708 18.643616-5.187139 28.278043-11.209296 0.624217-21.954011 1.526773-33.717939 1.526773-163.866115 0-278.080389-57.407478-278.080389-108.818381L120.760876 422.350191zM398.842289 793.803177c-163.866115 0-278.080389-57.382918-278.080389-108.841917L120.761899 600.642876c51.086515 46.896076 156.315138 76.722382 278.080389 76.722382 11.670807 0 22.694885-0.763386 34.041304-1.412163 3.937682 30.499641 13.107529 59.422368 27.049053 85.498256 5.048993 9.682523 11.069103 18.689664 17.368576 27.513634C452.707081 791.94997 426.539094 793.803177 398.842289 793.803177M681.968601 845.354274c-58.031695 0-110.36869-24.755824-147.144268-64.263629-8.243755-8.916067-15.747659-18.59552-22.324448-28.786627-20.054755-31.355125-31.864732-68.337411-31.864732-108.215654 0-0.579191 0.093121-1.112334 0.093121-1.715061 0.093121-11.670807 1.25048-23.158443 3.288906-34.342156 1.805112-10.143011 4.492314-20.009729 7.78122-29.689183 24.593118-70.956052 87.767949-123.966383 164.328649-133.829008 8.567119-1.159406 17.089214-1.855254 25.842575-1.855254 2.455935 0 4.956895 0.278339 7.552 0.325411 107.451244 4.074805 193.783495 92.540649 193.783495 201.104227C883.304096 754.967684 792.990161 845.354274 681.968601 845.354274" fill="" p-id="28911"></path><path d="M837.639057 572.067051l-25.475208-25.264407c-4.725628-4.702092-12.319583-4.702092-16.906042 0L654.597207 687.3691l-72.53092-72.876798c-4.631484-4.702092-12.180414-4.702092-16.85897 0l-25.381064 25.356504c-4.631484 4.702092-4.631484 12.251022 0 16.881482l106.247836 106.805538c4.630461 4.700045 12.134365 4.700045 16.861016 0l174.703951-174.424588C842.176396 584.363098 842.176396 576.769143 837.639057 572.067051" fill="" p-id="28912"></path></svg>
