<?xml version="1.0" standalone="no"?><!DOCTYPE svg PUBLIC "-//W3C//DTD SVG 1.1//EN" "http://www.w3.org/Graphics/SVG/1.1/DTD/svg11.dtd"><svg t="1732532315706" class="icon" viewBox="0 0 1024 1024" version="1.1" xmlns="http://www.w3.org/2000/svg" p-id="30994" xmlns:xlink="http://www.w3.org/1999/xlink" width="200" height="200"><path d="M682.666667 1014.247619c-141.409524 0-258.438095-117.028571-258.438096-258.438095s117.028571-258.438095 258.438096-258.438095 258.438095 117.028571 258.438095 258.438095-117.028571 258.438095-258.438095 258.438095z m0-438.857143c-97.52381 0-180.419048 82.895238-180.419048 180.419048s82.895238 180.419048 180.419048 180.419047 180.419048-82.895238 180.419047-180.419047-82.895238-180.419048-180.419047-180.419048z" p-id="30995" fill=""></path><path d="M668.038095 843.580952c-4.87619 0-14.628571 0-19.504762-4.87619l-63.390476-63.390476c-9.752381-9.752381-9.752381-24.380952 0-34.133334s24.380952-9.752381 34.133333 0l43.885715 43.885715 92.647619-92.647619c9.752381-9.752381 24.380952-9.752381 34.133333 0s9.752381 24.380952 0 34.133333l-112.152381 112.152381c4.87619 0 0 4.87619-9.752381 4.87619zM292.571429 414.47619c0 14.628571-9.752381 24.380952-24.380953 24.380953s-24.380952-9.752381-24.380952-24.380953 9.752381-24.380952 24.380952-24.380952 24.380952 9.752381 24.380953 24.380952zM292.571429 609.52381c0 14.628571-9.752381 24.380952-24.380953 24.380952s-24.380952-9.752381-24.380952-24.380952 9.752381-24.380952 24.380952-24.380953 24.380952 9.752381 24.380953 24.380953zM292.571429 804.571429c0 14.628571-9.752381 24.380952-24.380953 24.380952s-24.380952-9.752381-24.380952-24.380952 9.752381-24.380952 24.380952-24.380953 24.380952 9.752381 24.380953 24.380953z" fill="" p-id="30996"></path><path d="M804.571429 112.152381c-24.380952-24.380952-53.638095-39.009524-87.771429-53.638095C653.409524 24.380952 560.761905 9.752381 463.238095 9.752381s-190.171429 14.628571-258.438095 43.885714c-34.133333 14.628571-63.390476 34.133333-82.895238 58.514286-24.380952 19.504762-39.009524 48.761905-39.009524 82.895238v585.142857c0 34.133333 14.628571 63.390476 39.009524 82.895238 24.380952 24.380952 53.638095 39.009524 87.771428 53.638096 63.390476 29.257143 146.285714 43.885714 238.933334 43.885714-19.504762-24.380952-39.009524-53.638095-53.638095-82.895238-63.390476-4.87619-117.028571-19.504762-156.038096-34.133334-29.257143-9.752381-48.761905-24.380952-58.514285-39.009523-14.628571-14.628571-14.628571-24.380952-14.628572-29.257143v-78.019048c4.87619 0 4.87619 4.87619 9.752381 4.876191 48.761905 29.257143 117.028571 48.761905 190.171429 58.514285h4.87619v-9.752381c0-24.380952 4.87619-48.761905 9.752381-68.266666h-4.87619c-68.266667-9.752381-121.904762-24.380952-160.914286-48.761905-39.009524-24.380952-48.761905-43.885714-48.761905-53.638095v-78.019048c14.628571 9.752381 29.257143 14.628571 43.885714 24.380952 58.514286 24.380952 131.657143 39.009524 214.552381 43.885715 19.504762-29.257143 48.761905-58.514286 78.019048-78.019048H463.238095c-92.647619 0-170.666667-14.628571-224.304762-39.009524-29.257143-9.752381-48.761905-24.380952-58.514285-39.009524-14.628571-9.752381-19.504762-19.504762-19.504762-24.380952V312.07619c14.628571 9.752381 29.257143 14.628571 43.885714 24.380953 68.266667 29.257143 160.914286 43.885714 258.438095 43.885714s190.171429-14.628571 258.438095-43.885714c14.628571-4.87619 29.257143-14.628571 43.885715-24.380953V390.095238c0 4.87619-4.87619 14.628571-14.628572 29.257143-4.87619 4.87619-14.628571 14.628571-29.257143 19.504762 43.885714 4.87619 87.771429 19.504762 121.904762 43.885714V195.047619c0-34.133333-14.628571-63.390476-39.009523-82.895238z m-53.638096 112.152381c-14.628571 14.628571-34.133333 24.380952-58.514285 39.009524-58.514286 24.380952-136.533333 39.009524-229.180953 39.009524s-170.666667-14.628571-224.304762-39.009524c-29.257143-9.752381-48.761905-24.380952-58.514285-39.009524-14.628571-14.628571-19.504762-24.380952-19.504762-29.257143s4.87619-14.628571 14.628571-29.257143c14.628571-14.628571 34.133333-24.380952 58.514286-39.009524 58.514286-24.380952 136.533333-39.009524 229.180952-39.009523s170.666667 14.628571 224.304762 39.009523c29.257143 9.752381 48.761905 24.380952 58.514286 39.009524 14.628571 14.628571 14.628571 24.380952 14.628571 29.257143s0 14.628571-9.752381 29.257143z" p-id="30997" fill=""></path></svg>
