<?xml version="1.0" standalone="no"?><!DOCTYPE svg PUBLIC "-//W3C//DTD SVG 1.1//EN" "http://www.w3.org/Graphics/SVG/1.1/DTD/svg11.dtd"><svg t="1732287607433" class="icon" viewBox="0 0 1024 1024" version="1.1" xmlns="http://www.w3.org/2000/svg" p-id="34218" xmlns:xlink="http://www.w3.org/1999/xlink" width="200" height="200"><path d="M864.761483 736.690647a154.138351 154.138351 0 0 0 41.934699-106.536801 156.971776 156.971776 0 0 0-121.270615-153.00498 274.84228 274.84228 0 0 0-155.838406-214.206973 155.271721 155.271721 0 0 0 41.368013-105.403431 158.105147 158.105147 0 0 0-315.643608 0A155.271721 155.271721 0 0 0 396.679579 262.941893a274.84228 274.84228 0 0 0-156.971776 214.206973 157.538462 157.538462 0 0 0-121.837299 153.00498A154.705036 154.705036 0 0 0 159.238517 736.690647 275.408965 275.408965 0 0 0 0 984.332042a39.667958 39.667958 0 0 0 39.667958 39.667958 39.667958 39.667958 0 0 0 39.667958-39.667958 196.639734 196.639734 0 1 1 392.712784 0 39.667958 39.667958 0 0 0 79.335915 0 196.639734 196.639734 0 0 1 393.279469 0 39.667958 39.667958 0 0 0 79.335916 0A275.97565 275.97565 0 0 0 864.761483 736.690647z m-38.534588-104.836746a78.202546 78.202546 0 1 1-78.202545-80.469286 78.202546 78.202546 0 0 1 78.202545 78.769231zM433.514112 157.538462A78.769231 78.769231 0 1 1 510.016602 236.307692a78.202546 78.202546 0 0 1-76.50249-78.76923z m-236.307693 472.615384a78.769231 78.769231 0 1 1 78.769231 78.202546 78.769231 78.769231 0 0 1-78.769231-78.202546zM510.016602 843.794134A276.542335 276.542335 0 0 0 392.712784 736.690647a156.405091 156.405091 0 0 0-73.669065-256.141671 195.506364 195.506364 0 0 1 385.912562 0 156.405091 156.405091 0 0 0-73.669065 256.141671A283.342557 283.342557 0 0 0 510.016602 843.794134z" p-id="34219" fill=""></path></svg>
