<?xml version="1.0" standalone="no"?><!DOCTYPE svg PUBLIC "-//W3C//DTD SVG 1.1//EN" "http://www.w3.org/Graphics/SVG/1.1/DTD/svg11.dtd"><svg t="1732507868331" class="icon" viewBox="0 0 1024 1024" version="1.1" xmlns="http://www.w3.org/2000/svg" p-id="1799" xmlns:xlink="http://www.w3.org/1999/xlink" width="200" height="200"><path d="M804.864 428.544l-36.864-32.256c2.048-13.312 3.072-27.136 3.072-41.984 0-14.336-1.024-28.16-3.072-41.472l35.328-30.208c10.752-9.216 15.36-23.552 11.264-37.376-5.632-18.432-13.312-36.352-23.04-53.248-9.728-16.896-21.504-32.768-34.304-47.616-9.728-11.264-25.088-15.36-38.4-10.24l-48.128 15.872c-10.752-8.192-21.504-15.36-30.72-20.992-10.752-6.144-23.04-11.776-37.376-17.408l-9.216-46.592c-2.56-14.848-14.336-26.112-29.184-28.672-14.848-2.56-32.256-4.096-50.688-4.096-18.944 0-39.936 2.048-62.464 6.144-14.848 2.56-26.624 14.336-29.184 29.184L412.16 117.76l-7.68 3.072c-7.68 3.584-15.36 7.68-23.04 12.288-10.24 5.632-19.456 12.288-28.672 19.968l-44.544-16.896c-14.336-5.632-30.72-1.024-40.448 10.752-13.824 16.384-25.088 32.768-33.792 48.128-8.704 15.36-16.896 33.792-25.088 54.784-5.12 13.824-1.024 29.696 10.24 39.936l37.888 33.28c-2.56 22.016-2.56 44.032 0 66.048l-37.376 32.256c-11.264 9.728-15.36 25.6-10.24 39.424 7.68 20.992 15.872 39.424 25.088 55.808 9.216 16.384 19.968 31.744 32.256 46.08 9.728 11.264 25.088 15.36 39.424 10.752l45.568-15.872c9.728 7.68 19.968 14.848 31.232 20.992 10.24 5.632 19.968 10.752 29.696 14.848l9.216 49.664c2.56 14.848 14.336 26.112 28.672 28.672 18.944 3.584 37.888 5.632 56.832 6.144 18.944 0.512 37.376-1.024 56.32-4.096 14.848-2.56 26.624-13.824 29.696-28.672l9.216-47.616c12.8-4.608 25.088-10.24 36.864-16.384 11.264-6.144 22.016-13.312 32.256-21.504l47.616 16.384c13.824 4.608 29.184 0.512 38.912-10.24 12.288-13.824 23.04-29.184 32.256-45.056 9.728-15.872 17.92-32.768 25.088-50.176 4.608-15.36 0.512-31.744-10.752-41.984z m-111.104-119.296c3.584 12.8 5.12 28.16 5.12 45.568 0 17.408-2.048 32.256-5.632 45.056-4.096 13.312 0.512 28.16 10.752 37.376l32.768 28.672c-5.632 11.264-12.288 22.016-19.456 32.768l-42.496-14.336c-12.288-4.096-26.112-1.536-35.84 7.68-10.752 10.24-22.528 18.432-35.328 25.6-13.312 7.168-27.136 12.8-41.984 16.384-13.312 3.584-23.552 14.336-26.112 28.16l-8.192 43.008c-13.312 0.512-26.624 0.512-39.936-1.024l-8.192-44.544c-2.56-12.8-11.776-23.552-24.576-27.648-11.264-3.584-23.552-9.216-37.376-16.896-12.8-7.168-23.552-15.36-32.256-24.064-9.728-10.24-24.576-13.312-37.376-8.704l-40.96 14.336c-8.192-11.776-14.848-24.064-20.48-37.376l33.28-28.672c9.728-8.192 14.336-21.504 11.776-33.792-2.56-13.312-3.584-26.624-3.584-40.96 0-13.824 1.024-27.136 3.584-40.448 2.56-12.8-2.048-25.6-11.776-33.792l-33.28-29.184c3.584-7.68 7.168-14.848 10.752-20.992 3.072-5.632 7.168-11.776 11.264-17.408l39.424 15.36c13.312 5.12 28.16 2.048 37.888-7.68 9.728-9.216 20.48-17.92 32.256-24.576 12.288-7.168 24.576-12.8 37.376-16.896 12.288-4.096 21.504-14.848 24.064-27.648l8.192-44.032c9.216-1.024 17.92-1.536 25.6-1.536h14.336l8.192 41.472c2.56 12.8 12.288 23.552 25.088 27.648 18.432 5.632 32.768 11.264 42.496 16.896 10.752 6.144 23.04 15.36 37.888 27.648 9.728 7.68 22.528 10.24 34.304 6.656l42.496-14.336c4.096 6.144 8.192 11.776 11.776 17.92 3.072 5.12 5.632 10.24 8.192 15.36l-32.256 27.648c-11.264 7.168-15.36 21.504-11.776 35.328z" p-id="1800" fill="#707070"></path><path d="M512 218.624c-74.752 0-135.68 60.928-135.68 135.68 0 75.264 60.928 135.68 135.68 135.68 75.264 0 135.68-60.928 135.68-136.192 0-74.24-60.928-135.168-135.68-135.168z m0 199.68c-35.328 0-64-28.672-64-64s28.672-64 64-64 64 28.672 64 64c0 35.84-28.672 64-64 64zM427.52 707.072v284.16h-102.4v-194.56c-177.152-45.568-308.736-206.848-308.736-398.336h102.4c0 169.984 138.752 308.736 308.736 308.736zM596.48 707.072v284.16h102.4v-194.56c177.152-45.568 308.736-206.848 308.736-398.336h-102.4c0 169.984-138.752 308.736-308.736 308.736z" p-id="1801" fill="#707070"></path></svg>