<?xml version="1.0" standalone="no"?><!DOCTYPE svg PUBLIC "-//W3C//DTD SVG 1.1//EN" "http://www.w3.org/Graphics/SVG/1.1/DTD/svg11.dtd"><svg t="1732531936627" class="icon" viewBox="0 0 1024 1024" version="1.1" xmlns="http://www.w3.org/2000/svg" p-id="19897" xmlns:xlink="http://www.w3.org/1999/xlink" width="200" height="200"><path d="M410.154667 675.541333l-152.234667-100.053333c-14.634667-9.685333-33.28-3.754667-41.642667 13.184-8.362667 16.938667-3.242667 38.485333 11.434667 48.128l152.192 100.053333c14.677333 9.685333 33.322667 3.754667 41.685333-13.184 8.362667-16.938667 3.242667-38.485333-11.434666-48.128z" fill="" p-id="19898"></path><path d="M793.344 375.850667a32.896 32.896 0 0 0 12.032-44.501334 31.829333 31.829333 0 0 0-43.776-12.245333l-250.666667 144.938667L260.266667 319.146667a31.872 31.872 0 0 0-43.776 12.202666 32.896 32.896 0 0 0 11.989333 44.501334l254.250667 146.986666v314.026667c0 11.648 6.101333 22.442667 16.042666 28.288 9.941333 5.802667 22.186667 5.802667 32.128 0a32.725333 32.725333 0 0 0 16.042667-28.288v-315.349333c0-1.024-0.469333-1.877333-0.554667-2.901334l246.954667-142.762666z" fill="" p-id="19899"></path><path d="M475.136 36.949333L119.637333 243.754667a71.125333 71.125333 0 0 0-35.413333 61.44v407.594666c0 25.514667 13.738667 49.109333 35.925333 61.781334l355.498667 202.837333c21.845333 12.458667 48.64 12.458667 70.485333 0l355.413334-202.88c22.144-12.629333 35.84-36.181333 35.84-61.696l0.170666-407.594667c0-25.344-13.44-48.768-35.370666-61.525333L546.645333 36.949333a71.125333 71.125333 0 0 0-71.509333 0z m35.754667 77.952l341.333333 198.485334-0.170667 391.125333-341.162666 194.730667-341.333334-194.730667V313.386667l341.333334-198.485334z" fill="" p-id="19900"></path></svg>
