<?xml version="1.0" standalone="no"?><!DOCTYPE svg PUBLIC "-//W3C//DTD SVG 1.1//EN" "http://www.w3.org/Graphics/SVG/1.1/DTD/svg11.dtd"><svg t="1732532138565" class="icon" viewBox="0 0 1024 1024" version="1.1" xmlns="http://www.w3.org/2000/svg" p-id="27330" xmlns:xlink="http://www.w3.org/1999/xlink" width="200" height="200"><path d="M576 800a96 96 0 0 1 96-96h64a96 96 0 0 1 96 96h128a32 32 0 0 1 0 64h-128a96 96 0 0 1-96 96h-64a96 96 0 0 1-96-96H64a32 32 0 0 1 0-64h512z m96-32a32 32 0 0 0-32 32v64a32 32 0 0 0 32 32h64a32 32 0 0 0 32-32v-64a32 32 0 0 0-32-32h-64zM544 160a96 96 0 0 1 96-96h64a96 96 0 0 1 96 96h160a32 32 0 0 1 0 64h-160a96 96 0 0 1-96 96h-64a96 96 0 0 1-96-96H64a32 32 0 1 1 0-64h480z m96-32a32 32 0 0 0-32 32v64a32 32 0 0 0 32 32h64a32 32 0 0 0 32-32V160a32 32 0 0 0-32-32h-64zM192 480a96 96 0 0 1 96-96h64a96 96 0 0 1 96 96h512a32 32 0 0 1 0 64H448a96 96 0 0 1-96 96H288a96 96 0 0 1-96-96H64a32 32 0 0 1 0-64h128z m96-32a32 32 0 0 0-32 32v64a32 32 0 0 0 32 32h64a32 32 0 0 0 32-32v-64a32 32 0 0 0-32-32H288z" fill="" p-id="27331"></path></svg>
