<?xml version="1.0" standalone="no"?><!DOCTYPE svg PUBLIC "-//W3C//DTD SVG 1.1//EN" "http://www.w3.org/Graphics/SVG/1.1/DTD/svg11.dtd"><svg t="1732508200005" class="icon" viewBox="0 0 1024 1024" version="1.1" xmlns="http://www.w3.org/2000/svg" p-id="8338" xmlns:xlink="http://www.w3.org/1999/xlink" width="200" height="200"><path d="M629.76 896H496.64v-30.72h102.4c-35.84-15.36-66.56-40.96-92.16-66.56h-409.6c-20.48 0-30.72-15.36-30.72-30.72v-30.72H460.8c-10.24-20.48-20.48-40.96-30.72-66.56H66.56v-460.8c0-20.48 15.36-30.72 30.72-30.72h732.16c20.48 0 30.72 15.36 30.72 30.72v61.44c25.6 10.24 46.08 20.48 66.56 35.84V209.92c0-51.2-46.08-97.28-97.28-97.28H97.28C46.08 102.4 0 148.48 0 199.68v558.08c0 51.2 46.08 97.28 97.28 97.28h332.8v30.72H296.96c-20.48 0-30.72 15.36-30.72 30.72 0 20.48 15.36 30.72 30.72 30.72h332.8c20.48 0 30.72-15.36 30.72-30.72 5.12-10.24-10.24-20.48-30.72-20.48z" fill="" p-id="8339"></path><path d="M747.52 486.4c-61.44 0-112.64 51.2-112.64 112.64 0 61.44 51.2 112.64 112.64 112.64s112.64-51.2 112.64-112.64c0-61.44-51.2-112.64-112.64-112.64z m0 174.08c-30.72 0-61.44-25.6-61.44-61.44 0-30.72 25.6-61.44 61.44-61.44 30.72 0 61.44 25.6 61.44 61.44-5.12 30.72-30.72 61.44-61.44 61.44z" fill="" p-id="8340"></path><path d="M1018.88 552.96c-5.12-25.6-25.6-46.08-51.2-46.08-15.36 0-25.6-10.24-30.72-20.48-5.12-10.24-5.12-25.6 0-40.96 10.24-20.48 5.12-51.2-15.36-66.56-25.6-20.48-51.2-35.84-81.92-46.08-25.6-10.24-51.2 0-66.56 20.48-10.24 10.24-20.48 15.36-35.84 15.36-15.36 0-25.6-5.12-35.84-20.48-15.36-20.48-46.08-30.72-66.56-20.48-30.72 10.24-56.32 25.6-81.92 46.08-20.48 15.36-25.6 46.08-15.36 71.68 5.12 10.24 5.12 25.6 0 40.96-5.12 10.24-20.48 20.48-30.72 20.48-25.6 0-46.08 20.48-51.2 46.08 0 15.36-5.12 30.72-5.12 46.08 0 10.24 0 30.72 5.12 46.08 5.12 25.6 25.6 46.08 51.2 46.08 15.36 0 25.6 10.24 30.72 20.48 5.12 10.24 5.12 25.6 0 40.96-10.24 20.48-5.12 51.2 15.36 66.56 25.6 20.48 51.2 35.84 81.92 46.08 5.12 0 10.24 5.12 20.48 5.12 20.48 0 35.84-10.24 46.08-25.6 10.24-10.24 20.48-15.36 35.84-15.36 15.36 0 25.6 5.12 35.84 20.48 15.36 20.48 46.08 30.72 66.56 20.48 30.72-10.24 61.44-30.72 81.92-46.08 20.48-15.36 25.6-46.08 15.36-66.56-5.12-10.24-5.12-25.6 0-40.96 5.12-10.24 20.48-20.48 30.72-20.48 25.6 0 46.08-20.48 51.2-46.08 0-15.36 5.12-30.72 5.12-46.08 0-20.48-5.12-35.84-5.12-51.2z m-51.2 81.92z m0-5.12c0 5.12 0 5.12 0 0-35.84 10.24-61.44 25.6-76.8 56.32-15.36 25.6-15.36 61.44-5.12 87.04v5.12c-15.36 15.36-40.96 30.72-61.44 35.84-15.36-25.6-46.08-40.96-81.92-40.96-30.72 0-61.44 15.36-76.8 40.96-25.6-10.24-46.08-20.48-66.56-35.84 15.36-30.72 10.24-61.44-5.12-92.16-15.36-25.6-40.96-46.08-76.8-51.2 0-10.24-5.12-25.6-5.12-35.84 0-10.24 0-20.48 5.12-30.72V563.2c30.72-5.12 61.44-20.48 76.8-51.2 15.36-25.6 20.48-61.44 5.12-92.16 20.48-15.36 40.96-25.6 61.44-35.84h5.12c15.36 25.6 46.08 40.96 76.8 40.96 25.6 0 56.32-15.36 76.8-40.96 25.6 10.24 46.08 20.48 66.56 35.84-15.36 30.72-15.36 61.44 5.12 87.04 15.36 25.6 40.96 46.08 76.8 51.2 0 15.36 5.12 25.6 5.12 35.84 0 15.36-5.12 25.6-5.12 35.84z" fill="" p-id="8341"></path></svg>
