<?xml version="1.0" standalone="no"?><!DOCTYPE svg PUBLIC "-//W3C//DTD SVG 1.1//EN" "http://www.w3.org/Graphics/SVG/1.1/DTD/svg11.dtd"><svg t="1732508162143" class="icon" viewBox="0 0 1024 1024" version="1.1" xmlns="http://www.w3.org/2000/svg" p-id="7081" xmlns:xlink="http://www.w3.org/1999/xlink" width="200" height="200"><path d="M153.6 20.48c-45.24544 0-81.92 36.67456-81.92 81.92v793.6c0 45.24544 36.67456 81.92 81.92 81.92h256a30.72 30.72 0 1 0 0-61.44H153.6a20.48 20.48 0 0 1-20.48-20.48V102.4a20.48 20.48 0 0 1 20.48-20.48h665.6a20.48 20.48 0 0 1 20.48 20.48v307.2a30.72 30.72 0 1 0 61.44 0V102.4c0-45.24544-36.67456-81.92-81.92-81.92H153.6z" p-id="7082" fill=""></path><path d="M704.9216 636.60032a30.72 30.72 0 0 0-61.44 0v98.4576a30.72 30.72 0 1 0 61.44 0v-98.4576zM705.43872 811.12064a30.72 30.72 0 1 1-61.44 0 30.72 30.72 0 0 1 61.44 0z" p-id="7083" fill=""></path><path d="M674.6112 481.28C539.56096 481.28 430.08 590.76096 430.08 725.8112s109.48096 244.5312 244.5312 244.5312 244.5312-109.48096 244.5312-244.5312S809.66144 481.28 674.6112 481.28zM491.52 725.8112c0-101.12 81.9712-183.0912 183.0912-183.0912 101.12 0 183.0912 81.9712 183.0912 183.0912 0 101.12-81.9712 183.0912-183.0912 183.0912-101.12 0-183.0912-81.9712-183.0912-183.0912z" p-id="7084" fill=""></path><path d="M225.28 435.2a30.72 30.72 0 0 1 30.72-30.72h256a30.72 30.72 0 1 1 0 61.44H256a30.72 30.72 0 0 1-30.72-30.72zM256 199.68a30.72 30.72 0 0 0 0 61.44h460.8a30.72 30.72 0 1 0 0-61.44H256z" p-id="7085" fill=""></path></svg>
