<?xml version="1.0" standalone="no"?><!DOCTYPE svg PUBLIC "-//W3C//DTD SVG 1.1//EN" "http://www.w3.org/Graphics/SVG/1.1/DTD/svg11.dtd"><svg t="1732287412754" class="icon" viewBox="0 0 1024 1024" version="1.1" xmlns="http://www.w3.org/2000/svg" p-id="26117" xmlns:xlink="http://www.w3.org/1999/xlink" width="200" height="200"><path d="M946.495 353.364v-45.832c0-120.374-72.498-217.553-184.541-247.536-22.008-6.289-45.875-9.477-70.951-9.477-71.293 0-135.764 26.951-181.551 75.892-45.256 48.483-69.348 112.787-67.852 181.088l-1.24 42.128-210.416-1.265h-20.217c-72.906 0-132.223 59.313-132.223 132.223v360.673c0 72.909 59.316 132.223 132.223 132.223h540.248c72.908 0 132.223-59.313 132.223-132.223v-357.63c0-72.907-58.633-132.223-130.701-132.223h-15.393l-210.809-1.267 1.178-41.085c0-100.629 69.832-173.667 166.059-173.667 18.711 0 35.191 1.974 48.045 5.821 74.457 18.616 122.57 83.904 122.57 166.325v45.332l83.348 0.5z m-196.519 81.387c26.951 0 48.879 21.926 48.879 48.876v360.674c0 26.95-21.928 48.878-48.879 48.878H209.728c-26.951 0-48.881-21.928-48.881-48.878V483.628c0-26.951 21.93-48.876 48.881-48.876h540.248z" fill="" p-id="26118"></path><path d="M439.702 662.006v92.508c0 22.562 18.352 40.913 40.91 40.913 22.561 0 40.912-18.352 40.912-40.913v-92.508c18.383-12.891 30.436-35.605 30.436-58.154 0-40.009-31.34-71.349-71.348-71.349-40.01 0-71.35 31.34-71.35 71.349 0.001 22.548 12.053 45.263 30.44 58.154z" fill="" p-id="26119"></path></svg>
