<?xml version="1.0" standalone="no"?><!DOCTYPE svg PUBLIC "-//W3C//DTD SVG 1.1//EN" "http://www.w3.org/Graphics/SVG/1.1/DTD/svg11.dtd"><svg t="1732508473527" class="icon" viewBox="0 0 1024 1024" version="1.1" xmlns="http://www.w3.org/2000/svg" p-id="19686" xmlns:xlink="http://www.w3.org/1999/xlink" width="200" height="200"><path d="M894.72 732.672l-60.330667 60.330667-150.826666-150.826667-3.114667 3.157333-30.165333 150.869334-60.373334 60.330666-180.992-181.034666-211.2 211.2-60.330666-60.330667 211.2-211.2-181.034667-181.034667L227.84 373.802667l150.869333-30.165334 3.114667-3.157333-150.869333-150.869333 60.330666-60.373334L894.72 732.672zM442.197333 400.810667l-21.376 21.418666-120.405333 24.106667 277.333333 277.333333 24.064-120.405333 21.418667-21.418667-181.034667-181.034666z m358.912 3.157333l-57.173333 57.173333 60.330667 60.373334 57.173333-57.173334 30.165333 30.122667 60.373334-60.330667-362.069334-362.026666-60.330666 60.330666 30.165333 30.165334-57.173333 57.173333 60.330666 60.373333 57.173334-57.173333 181.034666 180.992z" fill="#515151" p-id="19687"></path></svg>