<?xml version="1.0" standalone="no"?><!DOCTYPE svg PUBLIC "-//W3C//DTD SVG 1.1//EN" "http://www.w3.org/Graphics/SVG/1.1/DTD/svg11.dtd"><svg t="1732529246040" class="icon" viewBox="0 0 1024 1024" version="1.1" xmlns="http://www.w3.org/2000/svg" p-id="10758" xmlns:xlink="http://www.w3.org/1999/xlink" width="200" height="200"><path d="M768 310.30303H620.606061a38.787879 38.787879 0 0 1-38.787879-38.787878 38.787879 38.787879 0 0 1 38.787879-38.787879h147.393939a38.787879 38.787879 0 0 1 38.787879 38.787879 38.787879 38.787879 0 0 1-38.787879 38.787878zM768 496.484848H620.606061a38.787879 38.787879 0 0 1-38.787879-38.787878 38.787879 38.787879 0 0 1 38.787879-38.787879h147.393939a38.787879 38.787879 0 0 1 38.787879 38.787879 38.787879 38.787879 0 0 1-38.787879 38.787878zM418.909091 512h-77.575758a116.363636 116.363636 0 0 1-116.363636-116.363636v-77.575758a116.363636 116.363636 0 0 1 116.363636-116.363636h77.575758a116.363636 116.363636 0 0 1 116.363636 116.363636v77.575758a116.363636 116.363636 0 0 1-116.363636 116.363636z m-77.575758-232.727273a38.787879 38.787879 0 0 0-38.787878 38.787879v77.575758a38.787879 38.787879 0 0 0 38.787878 38.787878h77.575758a38.787879 38.787879 0 0 0 38.787879-38.787878v-77.575758a38.787879 38.787879 0 0 0-38.787879-38.787879zM768 651.636364H279.272727a38.787879 38.787879 0 0 1-38.787879-38.787879 38.787879 38.787879 0 0 1 38.787879-38.787879h488.727273a38.787879 38.787879 0 0 1 38.787879 38.787879 38.787879 38.787879 0 0 1-38.787879 38.787879zM768 837.818182H279.272727a38.787879 38.787879 0 1 1 0-77.575758h488.727273a38.787879 38.787879 0 1 1 0 77.575758z" fill="" p-id="10759"></path><path d="M868.848485 1024H155.151515A116.363636 116.363636 0 0 1 38.787879 907.636364V116.363636A116.363636 116.363636 0 0 1 155.151515 0h713.69697a116.363636 116.363636 0 0 1 116.363636 116.363636v791.272728a116.363636 116.363636 0 0 1-116.363636 116.363636zM155.151515 77.575758a38.787879 38.787879 0 0 0-38.787879 38.787878v791.272728a38.787879 38.787879 0 0 0 38.787879 38.787878h713.69697a38.787879 38.787879 0 0 0 38.787879-38.787878V116.363636a38.787879 38.787879 0 0 0-38.787879-38.787878z" fill="" p-id="10760"></path></svg>
