<?xml version="1.0" standalone="no"?><!DOCTYPE svg PUBLIC "-//W3C//DTD SVG 1.1//EN" "http://www.w3.org/Graphics/SVG/1.1/DTD/svg11.dtd"><svg t="1732287336810" class="icon" viewBox="0 0 1024 1024" version="1.1" xmlns="http://www.w3.org/2000/svg" p-id="22953" xmlns:xlink="http://www.w3.org/1999/xlink" width="200" height="200"><path d="M935.5 295.88c-0.06-18.35-9.99-35.41-25.93-44.54L536.07 37.48c-15.93-9.09-35.66-9.04-51.53 0.19L112.69 254.25c-15.88 9.24-25.68 26.39-25.59 44.72l1.61 430.43c0.09 18.35 10.04 35.4 25.94 44.49l371.82 212.89c7.9 4.52 16.74 6.77 25.59 6.77 8.92 0 17.83-2.29 25.78-6.88l373.48-215.63c16-9.22 25.87-26.42 25.79-44.83l-1.61-430.33zM510.54 99.19l325.61 186.42-170.99 99.61-127.26-73.5c-4.3-2.48-8.89-4.15-13.6-5.29-4.01-1.71-8.37-2.64-12.87-2.54-5 0.03-9.68 1.25-13.92 3.25-3.84 1.14-7.62 2.56-11.17 4.61l-127.52 73.76-172.19-97.68L510.54 99.19z m1.76 551.7l-89.58-51.7 88.61-49.14 87.82 50.44-86.85 50.4z m119.8-107.85l-86.45-49.65-0.59-101.04 87.04 50.27v100.42zM478.83 392.61l0.58 99.42-87.32 48.41v-97.66l86.74-50.17z m-325.32-47.42l172.35 97.77v147.05c0 18.36 9.87 35.46 25.78 44.63l127.58 73.62-0.18 197.94-324.13-185.58-1.4-375.43zM545.27 905.9l0.18-197.67 127.19-73.79c15.85-9.17 25.7-26.26 25.7-44.59V442.53l171.11-99.67 1.39 375.08L545.27 905.9z" fill="#515151" p-id="22954"></path></svg>