<?xml version="1.0" standalone="no"?><!DOCTYPE svg PUBLIC "-//W3C//DTD SVG 1.1//EN" "http://www.w3.org/Graphics/SVG/1.1/DTD/svg11.dtd"><svg t="1732529205885" class="icon" viewBox="0 0 1024 1024" version="1.1" xmlns="http://www.w3.org/2000/svg" p-id="7983" xmlns:xlink="http://www.w3.org/1999/xlink" width="200" height="200"><path d="M512 0C230.4 0 0 230.4 0 512s230.4 512 512 512 512-230.4 512-512S793.6 0 512 0zM102.4 512c0-225.28 184.32-409.6 409.6-409.6 92.16 0 179.2 30.72 250.88 87.04L189.44 762.88C133.12 691.2 102.4 604.16 102.4 512zM512 921.6c-92.16 0-179.2-30.72-250.88-87.04l573.44-573.44C890.88 332.8 921.6 419.84 921.6 512c0 225.28-184.32 409.6-409.6 409.6z" fill="" p-id="7984"></path></svg>
